# xmcd
#
# Track frame offsets: 
#        150
#        14420
#        26002
#        52887
#        64525
#        84427
#        100055
#        113567
#        133867
#        152122
#        170855
#        186552
#        203125
#        212977
#
# Disc length: 3070 seconds
#
# Revision: 1
# Processed by: cddbd v1.5PL3 Copyright (c) Steve Scherf et al.
# Submitted via: ExactAudioCopy v0.90b4
#
DISCID=c30bfc0e
DTITLE=Billy Lee Riley - Shade Tree Blues
DYEAR=1999
DGENRE=Blues
TTITLE0=Gonna Bring it on Home to You
TTITLE1=I Don't Know
TTITLE2=Hard Times/Reposession Blues
TTITLE3=I Hear You Knockin'
TTITLE4=Hoodoo Woman Blues
TTITLE5=Ballin' the Jack
TTITLE6=I Might Be Crazy
TTITLE7=Without You Baby
TTITLE8=What Goes on in the Dark
TTITLE9=They Call Me Lazy
TTITLE10=Wild Cat Tamer
TTITLE11=Gonna Worry You Off My Mind
TTITLE12=Little Piece at a Time
TTITLE13=Dark Clouds Rollin'
EXTD=
EXTT0=
EXTT1=
EXTT2=
EXTT3=
EXTT4=
EXTT5=
EXTT6=
EXTT7=
EXTT8=
EXTT9=
EXTT10=
EXTT11=
EXTT12=
EXTT13=
PLAYORDER=
